<svg width="64" height="64" viewBox="0 0 64 64" fill="none" xmlns="http://www.w3.org/2000/svg">
	<path fill-rule="evenodd" clip-rule="evenodd"
		d="M20 41.0036C20 40.4731 20.2107 39.9644 20.5858 39.5894C20.9609 39.2143 21.4696 39.0036 22 39.0036H55C55.5304 39.0036 56.0391 39.2143 56.4142 39.5894C56.7893 39.9644 57 40.4731 57 41.0036C57 41.534 56.7893 42.0427 56.4142 42.4178C56.0391 42.7929 55.5304 43.0036 55 43.0036H22C21.4696 43.0036 20.9609 42.7929 20.5858 42.4178C20.2107 42.0427 20 41.534 20 41.0036ZM20 25.0036C20 24.4731 20.2107 23.9644 20.5858 23.5894C20.9609 23.2143 21.4696 23.0036 22 23.0036H55C55.5304 23.0036 56.0391 23.2143 56.4142 23.5894C56.7893 23.9644 57 24.4731 57 25.0036C57 25.534 56.7893 26.0427 56.4142 26.4178C56.0391 26.7929 55.5304 27.0036 55 27.0036H22C21.4696 27.0036 20.9609 26.7929 20.5858 26.4178C20.2107 26.0427 20 25.534 20 25.0036ZM20 9.00358C20 8.47314 20.2107 7.96444 20.5858 7.58936C20.9609 7.21429 21.4696 7.00358 22 7.00358H55C55.5304 7.00358 56.0391 7.21429 56.4142 7.58936C56.7893 7.96444 57 8.47314 57 9.00358C57 9.53401 56.7893 10.0427 56.4142 10.4178C56.0391 10.7929 55.5304 11.0036 55 11.0036H22C21.4696 11.0036 20.9609 10.7929 20.5858 10.4178C20.2107 10.0427 20 9.53401 20 9.00358ZM15.416 3.58757C15.6022 3.77336 15.75 3.99406 15.8508 4.23704C15.9517 4.48002 16.0036 4.74051 16.0036 5.00358C16.0036 5.26664 15.9517 5.52713 15.8508 5.77011C15.75 6.01309 15.6022 6.23379 15.416 6.41958L9.41599 12.4196C9.23021 12.6058 9.00951 12.7536 8.76653 12.8544C8.52355 12.9553 8.26306 13.0071 7.99999 13.0071C7.73692 13.0071 7.47644 12.9553 7.23346 12.8544C6.99048 12.7536 6.76978 12.6058 6.58399 12.4196L4.58399 10.4196C4.39804 10.2336 4.25054 10.0129 4.1499 9.76991C4.04926 9.52695 3.99747 9.26655 3.99747 9.00358C3.99747 8.7406 4.04926 8.4802 4.1499 8.23724C4.25054 7.99428 4.39804 7.77353 4.58399 7.58757C4.76995 7.40162 4.9907 7.25412 5.23366 7.15348C5.47662 7.05285 5.73702 7.00105 5.99999 7.00105C6.26297 7.00105 6.52337 7.05285 6.76633 7.15348C7.00928 7.25412 7.23004 7.40162 7.41599 7.58757L7.99999 8.17558L12.584 3.58757C12.7698 3.40132 12.9905 3.25355 13.2335 3.15273C13.4764 3.0519 13.7369 3 14 3C14.2631 3 14.5235 3.0519 14.7665 3.15273C15.0095 3.25355 15.2302 3.40132 15.416 3.58757ZM15.416 19.5876C15.6022 19.7734 15.75 19.9941 15.8508 20.237C15.9517 20.48 16.0036 20.7405 16.0036 21.0036C16.0036 21.2666 15.9517 21.5271 15.8508 21.7701C15.75 22.0131 15.6022 22.2338 15.416 22.4196L9.41599 28.4196C9.23021 28.6058 9.00951 28.7536 8.76653 28.8544C8.52355 28.9552 8.26306 29.0071 7.99999 29.0071C7.73692 29.0071 7.47644 28.9552 7.23346 28.8544C6.99048 28.7536 6.76978 28.6058 6.58399 28.4196L4.58399 26.4196C4.20845 26.044 3.99747 25.5347 3.99747 25.0036C3.99747 24.4725 4.20845 23.9631 4.58399 23.5876C4.95954 23.212 5.46889 23.001 5.99999 23.001C6.5311 23.001 7.04045 23.212 7.41599 23.5876L7.99999 24.1756L12.584 19.5876C12.7698 19.4013 12.9905 19.2536 13.2335 19.1527C13.4764 19.0519 13.7369 19 14 19C14.2631 19 14.5235 19.0519 14.7665 19.1527C15.0095 19.2536 15.2302 19.4013 15.416 19.5876Z"
		fill="currentColor"
	/>
	<path fill-rule="evenodd" clip-rule="evenodd"
		d="M20 57.0036C20 56.4731 20.2107 55.9644 20.5858 55.5894C20.9609 55.2143 21.4696 55.0036 22 55.0036H55C55.5304 55.0036 56.0391 55.2143 56.4142 55.5894C56.7893 55.9644 57 56.4731 57 57.0036C57 57.534 56.7893 58.0427 56.4142 58.4178C56.0391 58.7929 55.5304 59.0036 55 59.0036H22C21.4696 59.0036 20.9609 58.7929 20.5858 58.4178C20.2107 58.0427 20 57.534 20 57.0036ZM20 41.0036C20 40.4731 20.2107 39.9644 20.5858 39.5894C20.9609 39.2143 21.4696 39.0036 22 39.0036H55C55.5304 39.0036 56.0391 39.2143 56.4142 39.5894C56.7893 39.9644 57 40.4731 57 41.0036C57 41.534 56.7893 42.0427 56.4142 42.4178C56.0391 42.7929 55.5304 43.0036 55 43.0036H22C21.4696 43.0036 20.9609 42.7929 20.5858 42.4178C20.2107 42.0427 20 41.534 20 41.0036ZM20 25.0036C20 24.4731 20.2107 23.9644 20.5858 23.5894C20.9609 23.2143 21.4696 23.0036 22 23.0036H55C55.5304 23.0036 56.0391 23.2143 56.4142 23.5894C56.7893 23.9644 57 24.4731 57 25.0036C57 25.534 56.7893 26.0427 56.4142 26.4178C56.0391 26.7929 55.5304 27.0036 55 27.0036H22C21.4696 27.0036 20.9609 26.7929 20.5858 26.4178C20.2107 26.0427 20 25.534 20 25.0036ZM15.416 19.5876C15.6022 19.7734 15.75 19.9941 15.8508 20.237C15.9517 20.48 16.0036 20.7405 16.0036 21.0036C16.0036 21.2666 15.9517 21.5271 15.8508 21.7701C15.75 22.0131 15.6022 22.2338 15.416 22.4196L9.41599 28.4196C9.23021 28.6058 9.00951 28.7536 8.76653 28.8544C8.52355 28.9552 8.26306 29.0071 7.99999 29.0071C7.73692 29.0071 7.47644 28.9552 7.23346 28.8544C6.99048 28.7536 6.76978 28.6058 6.58399 28.4196L4.58399 26.4196C4.39804 26.2336 4.25054 26.0129 4.1499 25.7699C4.04926 25.527 3.99747 25.2666 3.99747 25.0036C3.99747 24.7406 4.04926 24.4802 4.1499 24.2372C4.25054 23.9943 4.39804 23.7735 4.58399 23.5876C4.76995 23.4016 4.9907 23.2541 5.23366 23.1535C5.47662 23.0528 5.73702 23.001 5.99999 23.001C6.26297 23.001 6.52337 23.0528 6.76633 23.1535C7.00928 23.2541 7.23004 23.4016 7.41599 23.5876L7.99999 24.1756L12.584 19.5876C12.7698 19.4013 12.9905 19.2536 13.2335 19.1527C13.4764 19.0519 13.7369 19 14 19C14.2631 19 14.5235 19.0519 14.7665 19.1527C15.0095 19.2536 15.2302 19.4013 15.416 19.5876ZM15.416 51.5876C15.6022 51.7734 15.75 51.9941 15.8508 52.237C15.9517 52.48 16.0036 52.7405 16.0036 53.0036C16.0036 53.2666 15.9517 53.5271 15.8508 53.7701C15.75 54.0131 15.6022 54.2338 15.416 54.4196L9.41599 60.4196C9.23021 60.6058 9.00951 60.7536 8.76653 60.8544C8.52355 60.9552 8.26306 61.0071 7.99999 61.0071C7.73692 61.0071 7.47644 60.9552 7.23346 60.8544C6.99048 60.7536 6.76978 60.6058 6.58399 60.4196L4.58399 58.4196C4.20845 58.044 3.99747 57.5347 3.99747 57.0036C3.99747 56.4725 4.20845 55.9631 4.58399 55.5876C4.95954 55.212 5.46889 55.001 5.99999 55.001C6.5311 55.001 7.04045 55.212 7.41599 55.5876L7.99999 56.1756L12.584 51.5876C12.7698 51.4013 12.9905 51.2536 13.2335 51.1527C13.4764 51.0519 13.7369 51 14 51C14.2631 51 14.5235 51.0519 14.7665 51.1527C15.0095 51.2536 15.2302 51.4013 15.416 51.5876Z"
		fill="currentColor"
	/>
	<path d="M6 37L13 44M13 37L6 44L13 37Z" stroke="currentColor" stroke-width="3.4"
		stroke-linecap="round" stroke-linejoin="round"
	/>
</svg>