<svg width="64" height="64" viewBox="0 0 64 64" fill="none" xmlns="http://www.w3.org/2000/svg">
	<path d="M6 6H22V2H2V22H6V6Z" fill="currentColor" />
	<path d="M22 22V10H10V22H22ZM14 14H18V18H14V14ZM41 6H58V22H62V2H41V6Z" fill="currentColor" />
	<path d="M54 22V10H42V22H54ZM46 14H50V18H46V14ZM22 58H6V42H2V62H22V58Z" fill="currentColor" />
	<path d="M22 42H10V54H22V42ZM18 50H14V46H18V50ZM58 58H41V62H62V42H58V58Z" fill="currentColor" />
	<path d="M34 38H50V46H54V34H34V38Z" fill="currentColor" />
	<path d="M54 54V50H30V34H10V38H26V54H54ZM26 10H30V22H26V10Z" fill="currentColor" />
	<path d="M10 30H38V10H34V26H10V30ZM42 26H54V30H42V26ZM42 42H46V46H42V42ZM34 42H38V46H34V42Z"
		fill="currentColor"
	/>
</svg>