<svg width="64" height="64" viewBox="0 0 64 64" fill="none" xmlns="http://www.w3.org/2000/svg">
	<path
		d="M44 48H20C18.9391 48 17.9217 47.5786 17.1716 46.8284C16.4214 46.0783 16 45.0609 16 44V38H20V44H44V38H48V44C48 45.0609 47.5786 46.0783 46.8284 46.8284C46.0783 47.5786 45.0609 48 44 48ZM4 30H60V34H4V30ZM48 26H44V20H20V26H16V20C16 18.9391 16.4214 17.9217 17.1716 17.1716C17.9217 16.4214 18.9391 16 20 16H44C45.0609 16 46.0783 16.4214 46.8284 17.1716C47.5786 17.9217 48 18.9391 48 20V26ZM60 20H56V8H44V4H60V20ZM8 20H4V4H20V8H8V20ZM20 60H4V44H8V56H20V60ZM60 60H44V56H56V44H60V60Z"
		fill="currentColor"
	/>
</svg>