<svg width="64" height="64" viewBox="0 0 64 64" fill="none" xmlns="http://www.w3.org/2000/svg">
	<path fill-rule="evenodd" clip-rule="evenodd"
		d="M0 2C0 1.46957 0.210714 0.960859 0.585786 0.585787C0.960859 0.210714 1.46957 0 2 0H30C30.5304 0 31.0391 0.210714 31.4142 0.585786C31.7893 0.960859 32 1.46957 32 2C32 2.53043 31.7893 3.03914 31.4142 3.41421C31.0391 3.78929 30.5304 4 30 4H2C1.46957 4 0.960859 3.78929 0.585786 3.41421C0.210714 3.03914 0 2.53043 0 2ZM44.5304 2C44.5304 1.46957 44.7411 0.960859 45.1162 0.585787C45.4913 0.210714 46 0 46.5304 0H54.5304C55.0609 0 55.5696 0.210714 55.9446 0.585787C56.3197 0.960859 56.5304 1.46957 56.5304 2C56.5304 2.53043 56.3197 3.03914 55.9446 3.41421C55.5696 3.78929 55.0609 4 54.5304 4H46.5304C46 4 45.4913 3.78929 45.1162 3.41421C44.7411 3.03914 44.5304 2.53043 44.5304 2ZM0 10C0 9.46957 0.210714 8.96086 0.585786 8.58579C0.960859 8.21071 1.46957 8 2 8H26C26.5304 8 27.0391 8.21071 27.4142 8.58579C27.7893 8.96086 28 9.46957 28 10C28 10.5304 27.7893 11.0391 27.4142 11.4142C27.0391 11.7893 26.5304 12 26 12H2C1.46957 12 0.960859 11.7893 0.585786 11.4142C0.210714 11.0391 0 10.5304 0 10ZM44.5304 10C44.5304 9.46957 44.7411 8.96086 45.1162 8.58579C45.4913 8.21071 46 8 46.5304 8H54.5304C55.0609 8 55.5696 8.21071 55.9446 8.58579C56.3197 8.96086 56.5304 9.46957 56.5304 10C56.5304 10.5304 56.3197 11.0391 55.9446 11.4142C55.5696 11.7893 55.0609 12 54.5304 12H46.5304C46 12 45.4913 11.7893 45.1162 11.4142C44.7411 11.0391 44.5304 10.5304 44.5304 10ZM0 18C0 17.4696 0.210714 16.9609 0.585786 16.5858C0.960859 16.2107 1.46957 16 2 16H34C34.5304 16 35.0391 16.2107 35.4142 16.5858C35.7893 16.9609 36 17.4696 36 18C36 18.5304 35.7893 19.0391 35.4142 19.4142C35.0391 19.7893 34.5304 20 34 20H2C1.46957 20 0.960859 19.7893 0.585786 19.4142C0.210714 19.0391 0 18.5304 0 18ZM44.5304 18C44.5304 17.4696 44.7411 16.9609 45.1162 16.5858C45.4913 16.2107 46 16 46.5304 16H54.5304C55.0609 16 55.5696 16.2107 55.9446 16.5858C56.3197 16.9609 56.5304 17.4696 56.5304 18C56.5304 18.5304 56.3197 19.0391 55.9446 19.4142C55.5696 19.7893 55.0609 20 54.5304 20H46.5304C46 20 45.4913 19.7893 45.1162 19.4142C44.7411 19.0391 44.5304 18.5304 44.5304 18ZM0 26C0 25.4696 0.210714 24.9609 0.585786 24.5858C0.960859 24.2107 1.46957 24 2 24H22C22.5304 24 23.0391 24.2107 23.4142 24.5858C23.7893 24.9609 24 25.4696 24 26C24 26.5304 23.7893 27.0391 23.4142 27.4142C23.0391 27.7893 22.5304 28 22 28H2C1.46957 28 0.960859 27.7893 0.585786 27.4142C0.210714 27.0391 0 26.5304 0 26ZM44.5304 26C44.5304 25.4696 44.7411 24.9609 45.1162 24.5858C45.4913 24.2107 46 24 46.5304 24H54.5304C55.0609 24 55.5696 24.2107 55.9446 24.5858C56.3197 24.9609 56.5304 25.4696 56.5304 26C56.5304 26.5304 56.3197 27.0391 55.9446 27.4142C55.5696 27.7893 55.0609 28 54.5304 28H46.5304C46 28 45.4913 27.7893 45.1162 27.4142C44.7411 27.0391 44.5304 26.5304 44.5304 26ZM0 34C0 33.4696 0.210714 32.9609 0.585786 32.5858C0.960859 32.2107 1.46957 32 2 32H22C22.5304 32 23.0391 32.2107 23.4142 32.5858C23.7893 32.9609 24 33.4696 24 34C24 34.5304 23.7893 35.0391 23.4142 35.4142C23.0391 35.7893 22.5304 36 22 36H2C1.46957 36 0.960859 35.7893 0.585786 35.4142C0.210714 35.0391 0 34.5304 0 34ZM44.5304 34C44.5304 33.4696 44.7411 32.9609 45.1162 32.5858C45.4913 32.2107 46 32 46.5304 32H54.5304C55.0609 32 55.5696 32.2107 55.9446 32.5858C56.3197 32.9609 56.5304 33.4696 56.5304 34C56.5304 34.5304 56.3197 35.0391 55.9446 35.4142C55.5696 35.7893 55.0609 36 54.5304 36H46.5304C46 36 45.4913 35.7893 45.1162 35.4142C44.7411 35.0391 44.5304 34.5304 44.5304 34ZM0 42C0 41.4696 0.210714 40.9609 0.585786 40.5858C0.960859 40.2107 1.46957 40 2 40H30C30.5304 40 31.0391 40.2107 31.4142 40.5858C31.7893 40.9609 32 41.4696 32 42C32 42.5304 31.7893 43.0391 31.4142 43.4142C31.0391 43.7893 30.5304 44 30 44H2C1.46957 44 0.960859 43.7893 0.585786 43.4142C0.210714 43.0391 0 42.5304 0 42ZM44.5304 42C44.5304 41.4696 44.7411 40.9609 45.1162 40.5858C45.4913 40.2107 46 40 46.5304 40H54.5304C55.0609 40 55.5696 40.2107 55.9446 40.5858C56.3197 40.9609 56.5304 41.4696 56.5304 42C56.5304 42.5304 56.3197 43.0391 55.9446 43.4142C55.5696 43.7893 55.0609 44 54.5304 44H46.5304C46 44 45.4913 43.7893 45.1162 43.4142C44.7411 43.0391 44.5304 42.5304 44.5304 42ZM0 50C0 49.4696 0.210714 48.9609 0.585786 48.5858C0.960859 48.2107 1.46957 48 2 48H14C14.5304 48 15.0391 48.2107 15.4142 48.5858C15.7893 48.9609 16 49.4696 16 50C16 50.5304 15.7893 51.0391 15.4142 51.4142C15.0391 51.7893 14.5304 52 14 52H2C1.46957 52 0.960859 51.7893 0.585786 51.4142C0.210714 51.0391 0 50.5304 0 50ZM44.5304 50C44.5304 49.4696 44.7411 48.9609 45.1162 48.5858C45.4913 48.2107 46 48 46.5304 48H54.5304C55.0609 48 55.5696 48.2107 55.9446 48.5858C56.3197 48.9609 56.5304 49.4696 56.5304 50C56.5304 50.5304 56.3197 51.0391 55.9446 51.4142C55.5696 51.7893 55.0609 52 54.5304 52H46.5304C46 52 45.4913 51.7893 45.1162 51.4142C44.7411 51.0391 44.5304 50.5304 44.5304 50ZM0 58C0 57.4696 0.210714 56.9609 0.585786 56.5858C0.960859 56.2107 1.46957 56 2 56H34C34.5304 56 35.0391 56.2107 35.4142 56.5858C35.7893 56.9609 36 57.4696 36 58C36 58.5304 35.7893 59.0391 35.4142 59.4142C35.0391 59.7893 34.5304 60 34 60H2C1.46957 60 0.960859 59.7893 0.585786 59.4142C0.210714 59.0391 0 58.5304 0 58ZM44.5304 58C44.5304 57.4696 44.7411 56.9609 45.1162 56.5858C45.4913 56.2107 46 56 46.5304 56H54.5304C55.0609 56 55.5696 56.2107 55.9446 56.5858C56.3197 56.9609 56.5304 57.4696 56.5304 58C56.5304 58.5304 56.3197 59.0391 55.9446 59.4142C55.5696 59.7893 55.0609 60 54.5304 60H46.5304C46 60 45.4913 59.7893 45.1162 59.4142C44.7411 59.0391 44.5304 58.5304 44.5304 58Z"
		fill="currentColor"
	/>
</svg>